<svg xmlns="http://www.w3.org/2000/svg" width="22.111" height="21.999" viewBox="0 0 22.111 21.999">
    <defs>
        <style>
            .cls-1{fill:#eceaec}.cls-1,.cls-2,.cls-3,.cls-4,.cls-5,.cls-6{fill-rule:evenodd}.cls-2{fill:#9fd4fe}.cls-3{fill:#ffe07d}.cls-4{fill:#b6b1b7}.cls-5{fill:#dad8db}.cls-6{fill:#ffc269}
        </style>
    </defs>
    <g id="bank" transform="translate(-.001 -1.295)">
        <g id="Group_537" transform="translate(1.781 2.564)">
            <path id="Path_356" d="M41.227 36.034v5.255h18.551v-5.255L50.5 30.678z" class="cls-1" transform="translate(-41.227 -30.678)"/>
        </g>
        <g id="Group_538" transform="translate(.325 1.619)">
            <path id="Path_357" d="M7.626 15.753a.851.851 0 0 0 1.16.311l.182-.105 9.276-5.359 9.276 5.356.182.105a.849.849 0 0 0 .848-1.471l-9.84-5.679a.993.993 0 0 0-.933 0l-9.84 5.681a.853.853 0 0 0-.311 1.16z" class="cls-2" transform="translate(-7.513 -8.795)"/>
        </g>
        <g id="Group_539" transform="translate(.326 13.175)">
            <path id="Path_358" d="M8.726 277.963h20.063a.2.2 0 0 0 .2-.2v-1.185a.2.2 0 0 0-.2-.2H7.723a.2.2 0 0 0-.2.2v1.185a.2.2 0 0 0 .2.2z" class="cls-2" transform="translate(-7.525 -276.381)"/>
        </g>
        <g id="Group_540" transform="translate(1.526 14.756)">
            <path id="Path_359" d="M36.237 314.417H39.8a.193.193 0 0 0 .192-.192V313h-4.661v1.22a.193.193 0 0 0 .192.192z" class="cls-1" transform="translate(-35.331 -313.004)"/>
        </g>
        <g id="Group_541" transform="translate(8.724 14.756)">
            <path id="Path_360" d="M202.908 314.417h3.563a.194.194 0 0 0 .193-.192V313H202v1.22a.194.194 0 0 0 .193.192z" class="cls-1" transform="translate(-202.001 -313.004)"/>
        </g>
        <g id="Group_542" transform="translate(15.923 14.756)">
            <path id="Path_361" d="M368.891 314.417h4.277a.194.194 0 0 0 .193-.192V313H368.7v1.22a.194.194 0 0 0 .191.197z" class="cls-1" transform="translate(-368.698 -313.004)"/>
        </g>
        <g id="Group_543" transform="translate(16.83 16.169)">
            <path id="Path_362" d="M389.7 345.715h2.85v3.807h-2.85z" class="cls-3" transform="translate(-389.702 -345.715)"/>
        </g>
        <g id="Group_544" transform="translate(9.631 16.169)">
            <path id="Path_363" d="M223 345.715h2.85v3.807H223z" class="cls-3" transform="translate(-223.004 -345.715)"/>
        </g>
        <g id="Group_545" transform="translate(2.432 16.169)">
            <path id="Path_364" d="M56.306 345.715h2.851v3.807h-2.851z" class="cls-3" transform="translate(-56.306 -345.715)"/>
        </g>
        <g id="Group_546" transform="translate(1.526 19.976)">
            <path id="Path_365" d="M35.331 435.283h4.663v-1.219a.194.194 0 0 0-.192-.193h-4.279a.194.194 0 0 0-.192.193z" class="cls-1" transform="translate(-35.331 -433.87)"/>
        </g>
        <g id="Group_547" transform="translate(15.923 19.976)">
            <path id="Path_366" d="M368.7 435.283h4.664v-1.219a.194.194 0 0 0-.193-.193h-4.277a.194.194 0 0 0-.193.193z" class="cls-1" transform="translate(-368.698 -433.87)"/>
        </g>
        <g id="Group_548" transform="translate(8.724 19.976)">
            <path id="Path_367" d="M202 435.283h4.664v-1.219a.194.194 0 0 0-.193-.193h-4.277a.194.194 0 0 0-.193.193v1.219z" class="cls-1" transform="translate(-202 -433.87)"/>
        </g>
        <g id="Group_549" transform="translate(.326 21.388)">
            <path id="Path_368" d="M7.722 468.164h21.066a.2.2 0 0 0 .2-.2v-1.184a.2.2 0 0 0-.2-.2H7.722a.2.2 0 0 0-.2.2v1.185a.2.2 0 0 0 .2.2z" class="cls-2" transform="translate(-7.524 -466.582)"/>
        </g>
        <g id="Group_550" transform="translate(10.067 5.341)">
            <path id="Path_369" d="M233.1 96.032a1.037 1.037 0 1 0 1.037-1.037 1.036 1.036 0 0 0-1.037 1.037z" class="cls-3" transform="translate(-233.095 -94.995)"/>
        </g>
        <g id="Group_551" transform="translate(5.283 14.756)">
            <path id="Path_370" d="M122.322 314.417v3.807h.714a.194.194 0 0 1 .192.193v1.219h2.535v-1.219a.194.194 0 0 1 .193-.193h.714v-3.807h-.714a.194.194 0 0 1-.193-.192V313h-2.535v1.22a.193.193 0 0 1-.192.192z" class="cls-4" transform="translate(-122.322 -313.004)"/>
        </g>
        <g id="Group_552" transform="translate(12.481 14.756)">
            <path id="Path_371" d="M288.992 314.417v3.807h.714a.194.194 0 0 1 .193.193v1.219h2.535v-1.219a.194.194 0 0 1 .193-.193h.714v-3.807h-.714a.194.194 0 0 1-.193-.192V313H289.9v1.22a.194.194 0 0 1-.193.192z" class="cls-4" transform="translate(-288.992 -313.004)"/>
        </g>
        <g id="Group_553" transform="translate(1.781 3.427)">
            <path id="Path_372" d="M50.5 50.662l-9.275 5.356v1.2l9.275-5.351 9.276 5.356v-1.2z" class="cls-5" transform="translate(-41.227 -50.662)"/>
        </g>
        <g id="Group_554" transform="translate(10.067 5.341)">
            <path id="Path_373" d="M234.133 95a1.038 1.038 0 0 0-.98 1.375 1.037 1.037 0 0 1 1.941.05 1.025 1.025 0 0 0 .076-.388A1.037 1.037 0 0 0 234.133 95z" class="cls-6" transform="translate(-233.096 -94.995)"/>
        </g>
        <g id="Group_555" transform="translate(2.432 16.169)">
            <path id="Path_374" d="M56.306 345.715h2.851v1.036h-2.851z" class="cls-6" transform="translate(-56.306 -345.715)"/>
        </g>
        <g id="Group_556" transform="translate(9.631 16.169)">
            <path id="Path_375" d="M223 345.715h2.85v1.036H223z" class="cls-6" transform="translate(-223.004 -345.715)"/>
        </g>
        <g id="Group_557" transform="translate(16.83 16.169)">
            <path id="Path_376" d="M389.7 345.715h2.85v1.036h-2.85z" class="cls-6" transform="translate(-389.702 -345.715)"/>
        </g>
        <g id="Group_558" transform="translate(1.526 14.756)">
            <path id="Path_377" d="M35.331 313h4.663v.758h-4.663z" class="cls-5" transform="translate(-35.331 -313.004)"/>
        </g>
        <g id="Group_559" transform="translate(8.724 14.756)">
            <path id="Path_378" d="M202 313h4.664v.758H202z" class="cls-5" transform="translate(-202.001 -313.004)"/>
        </g>
        <g id="Group_560" transform="translate(15.923 14.756)">
            <path id="Path_379" d="M368.7 313h4.664v.758H368.7z" class="cls-5" transform="translate(-368.698 -313.004)"/>
        </g>
        <g id="Group_562" transform="translate(.001 1.295)">
            <path id="Path_380" d="M20.393 16.493a.517.517 0 0 0 .517-.516v-.9h.679a.523.523 0 0 0 .522-.522v-1.182a.523.523 0 0 0-.522-.522h-.933v-3.56a1.156 1.156 0 0 0 .279.035 1.184 1.184 0 0 0 .308-.041 1.174 1.174 0 0 0 .282-2.149l-9.84-5.681a1.316 1.316 0 0 0-1.258 0L.587 7.136a1.174 1.174 0 0 0 .87 2.155v3.56H.524a.523.523 0 0 0-.524.522v1.185a.523.523 0 0 0 .522.522H1.2v.9a.517.517 0 0 0 .516.516h.39v3.159h-.39a.517.517 0 0 0-.516.517v.9H.524a.523.523 0 0 0-.524.515v1.185a.523.523 0 0 0 .522.522h9.858a.324.324 0 1 0 0-.648H.649v-.934h20.815v.934h-9.589a.324.324 0 1 0 0 .648h9.714a.523.523 0 0 0 .522-.522v-1.185a.523.523 0 0 0-.522-.522h-.679v-.9a.518.518 0 0 0-.517-.517H20v-3.155h.39zM1.437 8.607a.527.527 0 0 1-.718-.192.526.526 0 0 1 .192-.715l9.841-5.682a.623.623 0 0 1 .3-.072.614.614 0 0 1 .3.073L21.2 7.7a.525.525 0 0 1-.524.91l-9.458-5.464a.324.324 0 0 0-.324 0zM.649 13.5h9.731a.324.324 0 1 0 0-.648H2.1V8.969L11.056 3.8l8.952 5.169v3.881h-8.187a.324.324 0 0 0 0 .648h9.643v.934H.649zm8.4 2.346v-.766h4.016v.765zm3.109.648v3.159h-2.2v-3.16zM1.85 15.845v-.765h4.015v.765zm3.109.648v3.159h-2.2v-3.159zm.906 4.572H1.85V20.3h4.015zm2.535-.9v.9H6.513v-.9A.517.517 0 0 0 6 19.652h-.39v-3.159H6a.517.517 0 0 0 .516-.516v-.9H8.4v.9a.517.517 0 0 0 .517.516h.39v3.159h-.39a.518.518 0 0 0-.517.517zm4.664.9H9.048V20.3h4.016zm2.535-.9v.9h-1.887v-.9a.518.518 0 0 0-.517-.517H12.8v-3.155h.39a.517.517 0 0 0 .517-.516v-.9H15.6v.9a.517.517 0 0 0 .517.516h.39v3.159h-.39a.518.518 0 0 0-.517.517zm4.664.131v.765h-4.016V20.3zm-3.109-.648v-3.155h2.2v3.159zm-.907-3.807v-.761h4.016v.765z" transform="translate(-.001 -1.295)"/>
            <path id="Path_381" d="M228.316 88.856a1.361 1.361 0 1 0-1.361 1.361 1.362 1.362 0 0 0 1.361-1.361zm-2.074 0a.713.713 0 1 1 .713.713.714.714 0 0 1-.712-.713z" transform="translate(-215.853 -83.772)"/>
            <g id="Group_561" transform="translate(5.333 7.391)">
                <path id="Path_382" d="M125.3 174.563a.9.9 0 0 0-.762-1.385h-.731a.324.324 0 0 0-.324.324v2.515a.324.324 0 0 0 .324.324h.857a1 1 0 0 0 .634-1.775zm-.762-.737a.255.255 0 1 1 0 .51h-.407v-.51h.407zm.128 1.864h-.534v-.707h.534a.353.353 0 0 1 0 .706z" transform="translate(-123.483 -173.147)"/>
                <path id="Path_383" d="M188.923 173.424v-.009a.38.38 0 0 0-.352-.236.38.38 0 0 0-.352.237v.007l-.944 2.48a.324.324 0 0 0 .605.231l.156-.409h1.07l.154.408a.324.324 0 1 0 .606-.229zm-.648 1.653l.291-.764.288.764z" transform="translate(-184.493 -173.148)"/>
                <path id="Path_384" d="M265.9 173.179a.324.324 0 0 0-.321.327l.015 1.5-1.163-1.684a.324.324 0 0 0-.59.184v2.511a.324.324 0 0 0 .648 0v-1.472l1.107 1.6a.357.357 0 0 0 .4.148.37.37 0 0 0 .252-.368l-.023-2.43a.324.324 0 0 0-.325-.316z" transform="translate(-257.774 -173.148)"/>
                <path id="Path_385" d="M343.444 175.088L342.313 174l1.035-.952a.324.324 0 0 0-.438-.477l-.827.76v-.554a.324.324 0 1 0-.648 0v2.547a.324.324 0 1 0 .648 0v-.646l.912.88a.324.324 0 1 0 .45-.466z" transform="translate(-332.023 -172.45)"/>
            </g>
        </g>
    </g>
</svg>
